<?xml version="1.0" encoding="utf-8"?>
<!-- Generator: Adobe Illustrator 18.1.1, SVG Export Plug-In . SVG Version: 6.00 Build 0)  -->
<!DOCTYPE svg PUBLIC "-//W3C//DTD SVG 1.1//EN" "http://www.w3.org/Graphics/SVG/1.1/DTD/svg11.dtd">
<svg version="1.1" id="Layer_1" xmlns="http://www.w3.org/2000/svg" xmlns:xlink="http://www.w3.org/1999/xlink" x="0px" y="0px"
	 viewBox="0 0 200 126.5" enable-background="new 0 0 200 126.5" xml:space="preserve">
<g id="Space">
	<ellipse fill="#FFF1E1" cx="100.1" cy="63.1" rx="98.7" ry="20.7"/>
	<g>
		<path fill="#FAAD32" d="M100.1,42.1c0,0,1.6,0,4.7,0c3.1,0,7.5,0.1,13.2,0.3c5.7,0.2,12.6,0.6,20.5,1.3c7.9,0.7,16.8,1.7,26.4,3.4
			c4.8,0.9,9.8,1.9,14.9,3.4c2.5,0.7,5.1,1.5,7.6,2.5c2.5,1,5.1,2.2,7.4,3.8c1.2,0.8,2.3,1.8,3.2,3c0.9,1.2,1.4,2.8,1,4.3
			c-0.3,1.5-1.3,2.8-2.4,3.8c-1.1,1-2.3,1.9-3.6,2.6c-2.6,1.5-5.4,2.6-8.2,3.6c-2.8,1-5.8,1.8-8.7,2.6c-11.9,3-24.4,4.7-37.2,5.9
			c-12.8,1.2-25.8,1.7-38.8,1.8c-13,0-26.1-0.6-38.8-1.8c-12.8-1.2-25.3-2.9-37.2-5.9c-3-0.8-5.9-1.6-8.7-2.6
			c-2.8-1-5.6-2.1-8.2-3.6c-1.3-0.8-2.5-1.6-3.6-2.6c-1.1-1-2.1-2.3-2.4-3.8c-0.4-1.6,0.2-3.1,1-4.3c0.9-1.2,2-2.2,3.2-3
			c2.3-1.6,4.9-2.8,7.4-3.8c2.5-1,5.1-1.8,7.6-2.5c5.1-1.4,10.1-2.5,14.9-3.4c9.6-1.7,18.5-2.7,26.4-3.4c7.9-0.7,14.8-1,20.5-1.3
			c5.7-0.2,10.2-0.3,13.2-0.3C98.5,42.1,100.1,42.1,100.1,42.1z M100.1,42.6c0,0-1.6,0-4.7,0c-3,0-7.5,0.1-13.2,0.3
			c-5.7,0.2-12.6,0.6-20.5,1.3C53.9,45,45,46,35.4,47.8c-4.8,0.9-9.8,1.9-14.8,3.4c-2.5,0.7-5.1,1.5-7.6,2.5c-2.5,1-5,2.1-7.3,3.7
			c-1.1,0.8-2.2,1.7-3,2.8c-0.4,0.5-0.7,1.2-0.9,1.8c-0.1,0.3-0.1,0.6-0.1,1c0,0.3,0,0.6,0.1,1c0.3,1.3,1.2,2.4,2.2,3.4
			c1,1,2.2,1.8,3.5,2.5c2.5,1.4,5.3,2.5,8.1,3.5c2.8,1,5.7,1.8,8.7,2.5c11.8,2.9,24.3,4.6,37.1,5.7c12.7,1.1,25.7,1.6,38.7,1.6
			c13,0,26-0.5,38.7-1.6c12.7-1.1,25.2-2.8,37.1-5.7c2.9-0.7,5.8-1.6,8.7-2.5c2.8-1,5.6-2.1,8.1-3.5c1.3-0.7,2.5-1.5,3.5-2.5
			c1-0.9,1.9-2.1,2.2-3.4c0.3-1.3-0.1-2.6-0.9-3.7c-0.8-1.1-1.8-2-3-2.8c-2.3-1.6-4.8-2.7-7.3-3.7c-2.5-1-5-1.8-7.6-2.5
			c-5-1.4-10-2.5-14.8-3.4c-9.6-1.7-18.5-2.8-26.4-3.5c-7.9-0.7-14.8-1.1-20.5-1.3c-5.7-0.2-10.2-0.3-13.2-0.3
			C101.7,42.6,100.1,42.6,100.1,42.6z"/>
	</g>
</g>
<g>
	<path fill="#FAAD32" d="M34,64.8l3,0.4c0.5,0.1,1,0.2,1.4,0.3c0.4,0.2,0.8,0.4,1.1,0.6c0.3,0.3,0.5,0.6,0.6,1
		c0.1,0.4,0.2,0.8,0.1,1.4c-0.1,0.5-0.2,0.9-0.4,1.3c-0.2,0.4-0.5,0.6-0.8,0.8c-0.3,0.2-0.7,0.3-1.2,0.4c-0.5,0.1-0.9,0.1-1.5,0
		l-1.7-0.2L34,74.6l-1.2-0.2L34,64.8z M36.2,70c0.8,0.1,1.5,0,1.9-0.2c0.4-0.3,0.7-0.7,0.8-1.4c0.1-0.7-0.1-1.2-0.4-1.5
		c-0.4-0.3-1-0.5-1.8-0.6l-1.6-0.2l-0.5,3.8L36.2,70z"/>
	<path fill="#FAAD32" d="M41.9,68.3l1,0.1l0,1.3l0,0c0.3-0.4,0.6-0.8,1-1c0.4-0.2,0.8-0.3,1.2-0.3c0.3,0,0.5,0.1,0.8,0.2l-0.4,1
		c-0.1-0.1-0.2-0.1-0.3-0.1c-0.1,0-0.2-0.1-0.4-0.1c-0.3,0-0.6,0.1-1,0.3c-0.4,0.2-0.7,0.6-1,1.2l-0.5,4.6l-1.2-0.1L41.9,68.3z"/>
	<path fill="#FAAD32" d="M45.9,72.4c0.1-0.6,0.2-1.1,0.4-1.6c0.2-0.5,0.5-0.8,0.8-1.1c0.3-0.3,0.7-0.5,1.1-0.6
		c0.4-0.1,0.8-0.2,1.2-0.1c0.5,0,0.9,0.2,1.2,0.4c0.3,0.2,0.6,0.4,0.8,0.8c0.2,0.3,0.4,0.7,0.5,1.1c0.1,0.4,0.1,0.9,0.1,1.4
		c0,0.3-0.1,0.5-0.1,0.7l-4.9-0.5c0,0.8,0.2,1.4,0.5,1.9c0.4,0.5,0.9,0.8,1.6,0.8c0.3,0,0.7,0,1-0.1c0.3-0.1,0.6-0.2,0.9-0.3
		l0.4,0.8c-0.3,0.2-0.7,0.3-1.1,0.4c-0.4,0.1-0.8,0.1-1.3,0.1c-0.5,0-0.9-0.2-1.3-0.4c-0.4-0.2-0.7-0.5-1-0.8
		c-0.3-0.4-0.5-0.8-0.6-1.2C45.9,73.5,45.8,73,45.9,72.4z M51,72.3c0.1-0.7,0-1.3-0.3-1.7c-0.3-0.4-0.7-0.7-1.3-0.7
		c-0.3,0-0.5,0-0.7,0.1c-0.2,0.1-0.5,0.2-0.7,0.4c-0.2,0.2-0.4,0.4-0.5,0.7c-0.2,0.3-0.3,0.6-0.3,0.9L51,72.3z"/>
	<path fill="#FAAD32" d="M53.3,75c0.3,0.3,0.6,0.5,0.9,0.7c0.3,0.2,0.7,0.3,1.1,0.3c0.5,0,0.8,0,1.1-0.2c0.3-0.2,0.4-0.5,0.4-0.8
		c0-0.2,0-0.4-0.1-0.5c-0.1-0.1-0.2-0.3-0.3-0.4c-0.1-0.1-0.3-0.2-0.5-0.3c-0.2-0.1-0.4-0.2-0.6-0.3c-0.2-0.1-0.5-0.2-0.7-0.4
		c-0.2-0.1-0.5-0.3-0.7-0.5c-0.2-0.2-0.3-0.4-0.4-0.6c-0.1-0.2-0.2-0.5-0.1-0.8c0-0.3,0.1-0.6,0.2-0.8c0.1-0.2,0.3-0.4,0.5-0.6
		c0.2-0.2,0.5-0.3,0.8-0.4c0.3-0.1,0.7-0.1,1-0.1c0.5,0,0.9,0.2,1.2,0.3c0.4,0.2,0.7,0.4,0.9,0.7l-0.6,0.7c-0.2-0.2-0.5-0.4-0.7-0.5
		c-0.3-0.1-0.5-0.2-0.9-0.2c-0.5,0-0.8,0-1,0.2c-0.2,0.2-0.4,0.4-0.4,0.7c0,0.2,0,0.3,0.1,0.4c0.1,0.1,0.2,0.2,0.3,0.4
		c0.1,0.1,0.3,0.2,0.5,0.3c0.2,0.1,0.4,0.2,0.6,0.3c0.2,0.1,0.5,0.2,0.8,0.4c0.3,0.1,0.5,0.3,0.7,0.5s0.3,0.4,0.5,0.6
		c0.1,0.2,0.2,0.5,0.1,0.9c0,0.3-0.1,0.6-0.2,0.8c-0.1,0.2-0.3,0.5-0.6,0.6c-0.2,0.2-0.5,0.3-0.9,0.4C56,77,55.7,77,55.2,77
		c-0.5,0-1-0.2-1.4-0.4c-0.4-0.2-0.8-0.5-1.2-0.8L53.3,75z"/>
	<path fill="#FAAD32" d="M59.3,73.5c0-0.6,0.2-1.1,0.4-1.6c0.2-0.5,0.5-0.8,0.8-1.1c0.3-0.3,0.7-0.5,1.2-0.7C62.1,70,62.5,70,63,70
		c0.5,0,0.9,0.1,1.2,0.3c0.3,0.2,0.6,0.4,0.8,0.7l-0.7,0.7c-0.2-0.2-0.4-0.4-0.6-0.5C63.5,71.1,63.3,71,63,71c-0.3,0-0.6,0-0.9,0.1
		c-0.3,0.1-0.5,0.3-0.8,0.5c-0.2,0.2-0.4,0.5-0.5,0.9c-0.1,0.3-0.2,0.7-0.2,1.1c0,0.4,0,0.8,0.1,1.1c0.1,0.3,0.2,0.6,0.4,0.9
		c0.2,0.3,0.4,0.5,0.7,0.6c0.3,0.2,0.6,0.2,0.9,0.3c0.3,0,0.7,0,1-0.1c0.3-0.1,0.6-0.3,0.8-0.5l0.5,0.8c-0.3,0.3-0.7,0.5-1.1,0.6
		c-0.4,0.1-0.8,0.2-1.3,0.2c-0.5,0-0.9-0.1-1.3-0.3c-0.4-0.2-0.7-0.5-1-0.8c-0.3-0.3-0.5-0.8-0.6-1.2C59.3,74.7,59.2,74.1,59.3,73.5
		z"/>
	<path fill="#FAAD32" d="M66.9,67.1l1.2,0.1L67.9,70l-0.1,1.5c0.4-0.3,0.7-0.6,1.1-0.8c0.4-0.2,0.8-0.3,1.3-0.3
		c0.8,0,1.3,0.3,1.6,0.8c0.3,0.5,0.5,1.2,0.4,2.1l-0.3,4.6l-1.2-0.1l0.2-4.4c0-0.7,0-1.2-0.2-1.5c-0.2-0.3-0.5-0.5-1-0.5
		c-0.4,0-0.7,0.1-1,0.2c-0.3,0.2-0.6,0.4-1,0.8l-0.3,5.2l-1.2-0.1L66.9,67.1z"/>
	<path fill="#FAAD32" d="M73.9,74.4c0-0.6,0.1-1.1,0.3-1.6c0.2-0.5,0.5-0.9,0.8-1.2c0.3-0.3,0.7-0.5,1.1-0.7
		c0.4-0.2,0.8-0.2,1.3-0.2c0.4,0,0.9,0.1,1.3,0.3c0.4,0.2,0.7,0.4,1,0.8c0.3,0.3,0.5,0.7,0.7,1.2c0.2,0.5,0.2,1,0.2,1.6
		c0,0.6-0.1,1.1-0.3,1.6c-0.2,0.5-0.5,0.8-0.8,1.2c-0.3,0.3-0.7,0.5-1.1,0.7c-0.4,0.2-0.8,0.2-1.3,0.2c-0.4,0-0.9-0.1-1.3-0.3
		c-0.4-0.2-0.7-0.4-1-0.8c-0.3-0.3-0.5-0.7-0.7-1.2C74,75.6,73.9,75,73.9,74.4z M75.2,74.5c0,0.4,0,0.8,0.1,1.1
		c0.1,0.3,0.2,0.6,0.4,0.9c0.2,0.3,0.4,0.4,0.6,0.6c0.3,0.1,0.5,0.2,0.8,0.2c0.3,0,0.6,0,0.9-0.2s0.5-0.3,0.7-0.5
		c0.2-0.2,0.3-0.5,0.5-0.9c0.1-0.3,0.2-0.7,0.2-1.1c0-0.4,0-0.8-0.1-1.1c-0.1-0.3-0.2-0.6-0.4-0.9c-0.2-0.3-0.4-0.5-0.6-0.6
		c-0.3-0.1-0.5-0.2-0.8-0.2c-0.3,0-0.6,0-0.9,0.2c-0.3,0.1-0.5,0.3-0.7,0.5c-0.2,0.2-0.3,0.5-0.5,0.9C75.3,73.7,75.2,74.1,75.2,74.5
		z"/>
	<path fill="#FAAD32" d="M81.9,74.7c0-0.6,0.1-1.1,0.3-1.6c0.2-0.5,0.5-0.9,0.8-1.2c0.3-0.3,0.7-0.6,1.1-0.7
		c0.4-0.2,0.8-0.2,1.3-0.2c0.4,0,0.9,0.1,1.3,0.3c0.4,0.2,0.7,0.4,1,0.8c0.3,0.3,0.5,0.7,0.7,1.2c0.2,0.5,0.2,1,0.2,1.6
		c0,0.6-0.1,1.1-0.3,1.6c-0.2,0.5-0.5,0.9-0.8,1.2c-0.3,0.3-0.7,0.6-1.1,0.7c-0.4,0.2-0.8,0.2-1.3,0.2c-0.4,0-0.9-0.1-1.3-0.3
		c-0.4-0.2-0.7-0.4-1-0.8c-0.3-0.3-0.5-0.7-0.7-1.2C82,75.9,81.9,75.3,81.9,74.7z M83.2,74.8c0,0.4,0,0.8,0.1,1.1
		c0.1,0.3,0.2,0.6,0.4,0.9c0.2,0.2,0.4,0.4,0.6,0.6c0.3,0.1,0.5,0.2,0.8,0.2c0.3,0,0.6-0.1,0.9-0.2c0.3-0.1,0.5-0.3,0.7-0.5
		c0.2-0.2,0.3-0.5,0.4-0.9c0.1-0.3,0.2-0.7,0.2-1.1c0-0.4,0-0.8-0.1-1.1c-0.1-0.3-0.2-0.6-0.4-0.9c-0.2-0.3-0.4-0.4-0.6-0.6
		c-0.3-0.1-0.5-0.2-0.8-0.2c-0.3,0-0.6,0.1-0.9,0.2c-0.3,0.1-0.5,0.3-0.7,0.6c-0.2,0.2-0.3,0.5-0.4,0.9C83.2,74,83.2,74.4,83.2,74.8
		z"/>
	<path fill="#FAAD32" d="M90.5,67.9l1.2,0l-0.1,9.2c0,0.2,0,0.3,0.1,0.4c0.1,0.1,0.1,0.1,0.2,0.1c0,0,0.1,0,0.1,0c0,0,0.1,0,0.2,0
		l0.2,0.9c-0.1,0-0.2,0.1-0.3,0.1c-0.1,0-0.2,0-0.4,0c-0.5,0-0.8-0.2-1-0.4c-0.2-0.3-0.3-0.7-0.3-1.2L90.5,67.9z"/>
	<path fill="#FAAD32" d="M100.4,69c-0.3-0.1-0.5-0.2-0.8-0.2c-0.7,0-1,0.5-1,1.4l0,1.1l1.5,0l0,1l-1.5,0l0,6.2l-1.2,0l0-6.2l-1,0
		l0-0.9l1-0.1l0-1.1c0-0.7,0.2-1.3,0.5-1.8c0.3-0.4,0.9-0.6,1.6-0.6c0.2,0,0.4,0,0.6,0.1c0.2,0,0.4,0.1,0.6,0.2L100.4,69z"/>
	<path fill="#FAAD32" d="M100.8,75c0-0.6,0.1-1.1,0.3-1.6c0.2-0.5,0.4-0.9,0.7-1.2c0.3-0.3,0.7-0.6,1.1-0.8c0.4-0.2,0.8-0.3,1.3-0.3
		c0.4,0,0.9,0.1,1.3,0.2c0.4,0.2,0.8,0.4,1.1,0.7c0.3,0.3,0.6,0.7,0.7,1.2c0.2,0.5,0.3,1,0.3,1.6c0,0.6-0.1,1.1-0.3,1.6
		c-0.2,0.5-0.4,0.9-0.7,1.2c-0.3,0.3-0.7,0.6-1.1,0.7c-0.4,0.2-0.8,0.3-1.3,0.3s-0.9-0.1-1.3-0.2c-0.4-0.2-0.8-0.4-1.1-0.7
		c-0.3-0.3-0.6-0.7-0.7-1.2C100.9,76.1,100.8,75.6,100.8,75z M102.1,75c0,0.4,0.1,0.8,0.2,1.1c0.1,0.3,0.2,0.6,0.4,0.9
		c0.2,0.2,0.4,0.4,0.7,0.6c0.3,0.1,0.5,0.2,0.8,0.2s0.6-0.1,0.8-0.2s0.5-0.3,0.7-0.6c0.2-0.2,0.3-0.5,0.4-0.9
		c0.1-0.3,0.1-0.7,0.1-1.1c0-0.4-0.1-0.8-0.2-1.1c-0.1-0.3-0.2-0.6-0.4-0.9c-0.2-0.2-0.4-0.4-0.7-0.6c-0.3-0.1-0.5-0.2-0.8-0.2
		s-0.6,0.1-0.8,0.2c-0.3,0.1-0.5,0.3-0.7,0.6c-0.2,0.2-0.3,0.5-0.4,0.9C102.1,74.2,102.1,74.6,102.1,75z"/>
	<path fill="#FAAD32" d="M109.2,71.3l1,0l0.1,1.3l0,0c0.2-0.5,0.5-0.8,0.9-1.1c0.3-0.3,0.7-0.4,1.1-0.4c0.3,0,0.5,0,0.8,0.1
		l-0.2,1.1c-0.1,0-0.2-0.1-0.3-0.1c-0.1,0-0.2,0-0.4,0c-0.3,0-0.6,0.1-1,0.4c-0.3,0.3-0.6,0.7-0.8,1.3l0.1,4.6l-1.2,0L109.2,71.3z"
		/>
	<path fill="#FAAD32" d="M116.9,77.6c0.7-0.7,1.3-1.4,1.8-2c0.5-0.6,1-1.1,1.3-1.6c0.4-0.5,0.6-1,0.8-1.4c0.2-0.4,0.3-0.8,0.3-1.2
		c0-0.5-0.2-1-0.5-1.3c-0.3-0.3-0.8-0.5-1.4-0.5c-0.4,0-0.8,0.1-1.1,0.4c-0.3,0.2-0.6,0.5-0.9,0.8l-0.7-0.7c0.4-0.5,0.8-0.8,1.2-1.1
		c0.4-0.3,1-0.4,1.6-0.5c0.9,0,1.6,0.2,2.1,0.7c0.5,0.5,0.8,1.2,0.8,2c0,0.4-0.1,0.9-0.2,1.4c-0.2,0.5-0.4,0.9-0.8,1.4
		c-0.3,0.5-0.7,1-1.2,1.5s-0.9,1.1-1.5,1.7c0.3,0,0.5-0.1,0.8-0.1c0.3,0,0.5,0,0.8-0.1l2.7-0.1l0,1.1l-6.1,0.2L116.9,77.6z"/>
	<path fill="#FAAD32" d="M124.6,76.4c0.3,0.2,0.7,0.4,1,0.6c0.3,0.1,0.7,0.2,1.2,0.2c0.5,0,0.8-0.2,1.1-0.4c0.2-0.2,0.3-0.5,0.3-0.8
		c0-0.2-0.1-0.3-0.2-0.5c-0.1-0.1-0.2-0.2-0.4-0.3c-0.2-0.1-0.3-0.2-0.5-0.2c-0.2-0.1-0.4-0.1-0.6-0.2c-0.3-0.1-0.5-0.2-0.8-0.3
		c-0.3-0.1-0.5-0.2-0.7-0.4c-0.2-0.2-0.4-0.3-0.5-0.5c-0.1-0.2-0.2-0.5-0.2-0.8c0-0.3,0-0.6,0.1-0.8s0.3-0.5,0.5-0.7
		c0.2-0.2,0.5-0.4,0.8-0.5c0.3-0.1,0.6-0.2,1-0.2c0.5,0,0.9,0,1.3,0.2c0.4,0.1,0.7,0.3,1,0.5l-0.5,0.8c-0.3-0.2-0.5-0.3-0.8-0.4
		c-0.3-0.1-0.6-0.2-0.9-0.1c-0.5,0-0.8,0.1-1,0.4c-0.2,0.2-0.3,0.5-0.3,0.7c0,0.2,0.1,0.3,0.2,0.4s0.2,0.2,0.4,0.3
		c0.2,0.1,0.3,0.2,0.5,0.2c0.2,0.1,0.4,0.1,0.6,0.2c0.3,0.1,0.5,0.2,0.8,0.3s0.5,0.2,0.7,0.4c0.2,0.2,0.4,0.3,0.5,0.6
		c0.1,0.2,0.2,0.5,0.2,0.9c0,0.3,0,0.6-0.1,0.8c-0.1,0.3-0.3,0.5-0.5,0.7s-0.5,0.4-0.8,0.5c-0.3,0.1-0.7,0.2-1.1,0.2
		c-0.5,0-1,0-1.5-0.2c-0.5-0.2-0.9-0.4-1.3-0.7L124.6,76.4z"/>
	<path fill="#FAAD32" d="M133.5,75.7c-0.1-0.8,0.3-1.4,0.9-1.9c0.7-0.5,1.8-0.8,3.3-1.1c0-0.2-0.1-0.4-0.1-0.7s-0.2-0.4-0.3-0.6
		c-0.1-0.2-0.3-0.3-0.5-0.4c-0.2-0.1-0.4-0.1-0.7-0.1c-0.4,0-0.8,0.1-1.2,0.3c-0.4,0.2-0.7,0.4-0.9,0.6l-0.5-0.8
		c0.3-0.2,0.7-0.5,1.2-0.7c0.5-0.2,1-0.4,1.6-0.4c0.9-0.1,1.5,0.2,2,0.7c0.4,0.5,0.7,1.2,0.7,2.1l0.3,4.4l-1,0.1l-0.2-0.9l0,0
		c-0.3,0.3-0.7,0.6-1.1,0.8c-0.4,0.2-0.8,0.4-1.2,0.4c-0.6,0-1.1-0.1-1.6-0.4C133.8,76.8,133.6,76.3,133.5,75.7z M134.7,75.5
		c0,0.4,0.2,0.7,0.4,0.9s0.6,0.2,0.9,0.2c0.3,0,0.7-0.1,1-0.3c0.3-0.2,0.6-0.4,0.9-0.8l-0.1-2c-0.6,0.1-1.1,0.2-1.5,0.4
		c-0.4,0.1-0.7,0.3-1,0.5c-0.2,0.2-0.4,0.3-0.5,0.5C134.8,75.1,134.7,75.3,134.7,75.5z"/>
	<path fill="#FAAD32" d="M141,69.8l1-0.1l0.2,1l0,0c0.3-0.4,0.7-0.7,1-1c0.4-0.3,0.8-0.4,1.3-0.5c0.8-0.1,1.3,0.1,1.7,0.6
		c0.4,0.4,0.6,1.1,0.7,2.1l0.4,4.6l-1.2,0.1l-0.4-4.4c-0.1-0.7-0.2-1.2-0.5-1.4c-0.2-0.3-0.6-0.4-1.1-0.4c-0.4,0-0.7,0.2-1,0.4
		c-0.3,0.2-0.6,0.5-0.9,0.9l0.4,5.2l-1.2,0.1L141,69.8z"/>
	<path fill="#FAAD32" d="M148.8,72.8c-0.1-0.6,0-1.1,0.1-1.6c0.1-0.5,0.3-0.9,0.6-1.3c0.3-0.4,0.6-0.6,0.9-0.9
		c0.4-0.2,0.7-0.3,1.2-0.4c0.4,0,0.8,0,1.1,0.1c0.3,0.1,0.7,0.3,1,0.5l-0.2-1.2l-0.3-2.8l1.2-0.1l1.1,10.5l-1,0.1l-0.2-0.8l0,0
		c-0.3,0.3-0.6,0.6-0.9,0.8c-0.3,0.2-0.7,0.4-1.2,0.4c-0.9,0.1-1.7-0.2-2.3-0.8C149.2,74.9,148.9,74,148.8,72.8z M150,72.6
		c0.1,0.9,0.3,1.5,0.7,2c0.4,0.4,0.9,0.6,1.5,0.6c0.3,0,0.6-0.1,0.9-0.3c0.3-0.2,0.5-0.5,0.8-0.8l-0.4-3.8c-0.3-0.2-0.6-0.4-0.9-0.5
		c-0.3-0.1-0.6-0.1-0.9-0.1c-0.3,0-0.5,0.1-0.8,0.3c-0.2,0.2-0.4,0.4-0.6,0.6c-0.2,0.3-0.3,0.6-0.4,0.9C150,71.8,150,72.2,150,72.6z
		"/>
	<path fill="#FAAD32" d="M160.3,73.2c0.3,0.3,0.7,0.5,1.1,0.7c0.4,0.2,0.9,0.2,1.5,0.2c0.6-0.1,1-0.3,1.3-0.6
		c0.3-0.4,0.5-0.8,0.4-1.3c0-0.3-0.1-0.5-0.3-0.7c-0.1-0.2-0.3-0.4-0.6-0.5s-0.6-0.2-1-0.3c-0.4,0-0.9,0-1.4,0l-0.1-0.9
		c0.5-0.1,0.9-0.2,1.2-0.3c0.3-0.1,0.6-0.3,0.8-0.5c0.2-0.2,0.3-0.4,0.4-0.6c0.1-0.2,0.1-0.5,0-0.7c-0.1-0.5-0.3-0.8-0.6-1
		c-0.3-0.2-0.7-0.3-1.2-0.2c-0.4,0.1-0.7,0.2-1,0.4c-0.3,0.2-0.6,0.5-0.8,0.8l-0.7-0.7c0.3-0.4,0.7-0.7,1.1-1
		c0.4-0.3,0.9-0.5,1.5-0.5c0.4-0.1,0.8,0,1.2,0c0.4,0.1,0.7,0.2,1,0.4c0.3,0.2,0.5,0.4,0.7,0.7c0.2,0.3,0.3,0.6,0.3,1
		c0.1,0.6,0,1.1-0.3,1.5c-0.3,0.4-0.6,0.7-1.1,1l0,0.1c0.3,0,0.6,0.1,0.8,0.2c0.3,0.1,0.5,0.2,0.7,0.4c0.2,0.2,0.4,0.4,0.5,0.6
		c0.1,0.3,0.2,0.5,0.3,0.9c0.1,0.4,0,0.8-0.1,1.2c-0.1,0.4-0.3,0.7-0.6,0.9c-0.3,0.3-0.6,0.5-0.9,0.7c-0.4,0.2-0.8,0.3-1.2,0.3
		c-0.4,0-0.7,0.1-1,0c-0.3,0-0.6-0.1-0.9-0.2c-0.3-0.1-0.5-0.2-0.7-0.3c-0.2-0.1-0.4-0.3-0.6-0.4L160.3,73.2z"/>
	<path fill="#FAAD32" d="M167.6,72.5c0.4,0.2,0.7,0.4,1.1,0.5c0.4,0.1,0.7,0.1,1.2,0.1c0.5-0.1,0.8-0.2,1-0.5
		c0.2-0.2,0.3-0.5,0.2-0.8c0-0.2-0.1-0.3-0.2-0.5c-0.1-0.1-0.3-0.2-0.4-0.3c-0.2-0.1-0.4-0.1-0.6-0.2c-0.2,0-0.4-0.1-0.6-0.1
		c-0.3-0.1-0.5-0.1-0.8-0.2c-0.3-0.1-0.5-0.2-0.7-0.3c-0.2-0.1-0.4-0.3-0.6-0.5c-0.2-0.2-0.3-0.4-0.3-0.8c0-0.3,0-0.6,0.1-0.8
		c0.1-0.3,0.2-0.5,0.4-0.7c0.2-0.2,0.4-0.4,0.7-0.5c0.3-0.1,0.6-0.2,1-0.3c0.5-0.1,0.9,0,1.3,0.1c0.4,0.1,0.8,0.2,1.1,0.4l-0.5,0.8
		c-0.3-0.2-0.5-0.3-0.8-0.3c-0.3-0.1-0.6-0.1-0.9-0.1c-0.5,0.1-0.8,0.2-0.9,0.5c-0.2,0.2-0.3,0.5-0.2,0.8c0,0.2,0.1,0.3,0.2,0.4
		c0.1,0.1,0.2,0.2,0.4,0.3c0.2,0.1,0.3,0.1,0.5,0.2c0.2,0,0.4,0.1,0.6,0.1c0.3,0.1,0.5,0.1,0.8,0.2c0.3,0.1,0.5,0.2,0.8,0.3
		c0.2,0.1,0.4,0.3,0.6,0.5c0.2,0.2,0.3,0.5,0.3,0.8c0,0.3,0,0.6,0,0.8c-0.1,0.3-0.2,0.5-0.4,0.7c-0.2,0.2-0.4,0.4-0.8,0.6
		c-0.3,0.2-0.7,0.3-1.1,0.3c-0.5,0.1-1,0.1-1.5-0.1c-0.5-0.1-0.9-0.3-1.3-0.5L167.6,72.5z"/>
</g>
</svg>
